<?xml version="1.0" encoding="UTF-8"?>
<svg width="2525px" height="813px" viewBox="0 0 2525 813" version="1.1" xmlns="http://www.w3.org/2000/svg" xmlns:xlink="http://www.w3.org/1999/xlink">
    <!-- Generator: Sketch 55.2 (78181) - https://sketchapp.com -->
    <title>Banner</title>
    <desc>Created with Sketch.</desc>
    <defs>
        <rect id="path-1" x="0" y="0" width="537.6" height="537.6" rx="268.8"></rect>
        <filter x="-27.7%" y="-25.9%" width="155.4%" height="155.4%" filterUnits="objectBoundingBox" id="filter-3">
            <feMorphology radius="5" operator="erode" in="SourceAlpha" result="shadowSpreadOuter1"></feMorphology>
            <feOffset dx="0" dy="20" in="shadowSpreadOuter1" result="shadowOffsetOuter1"></feOffset>
            <feGaussianBlur stdDeviation="19" in="shadowOffsetOuter1" result="shadowBlurOuter1"></feGaussianBlur>
            <feColorMatrix values="0 0 0 0 0   0 0 0 0 0   0 0 0 0 0  0 0 0 0.2 0" type="matrix" in="shadowBlurOuter1" result="shadowMatrixOuter1"></feColorMatrix>
            <feOffset dx="0" dy="10" in="SourceAlpha" result="shadowOffsetOuter2"></feOffset>
            <feGaussianBlur stdDeviation="48" in="shadowOffsetOuter2" result="shadowBlurOuter2"></feGaussianBlur>
            <feColorMatrix values="0 0 0 0 0   0 0 0 0 0   0 0 0 0 0  0 0 0 0.12 0" type="matrix" in="shadowBlurOuter2" result="shadowMatrixOuter2"></feColorMatrix>
            <feOffset dx="0" dy="38" in="SourceAlpha" result="shadowOffsetOuter3"></feOffset>
            <feGaussianBlur stdDeviation="24" in="shadowOffsetOuter3" result="shadowBlurOuter3"></feGaussianBlur>
            <feColorMatrix values="0 0 0 0 0   0 0 0 0 0   0 0 0 0 0  0 0 0 0.14 0" type="matrix" in="shadowBlurOuter3" result="shadowMatrixOuter3"></feColorMatrix>
            <feMerge>
                <feMergeNode in="shadowMatrixOuter1"></feMergeNode>
                <feMergeNode in="shadowMatrixOuter2"></feMergeNode>
                <feMergeNode in="shadowMatrixOuter3"></feMergeNode>
            </feMerge>
        </filter>
        <path d="M16.1325,4.5 L20.6325,9 L40.5,9 L40.5,31.5 L4.5,31.5 L4.5,4.5 L16.1325,4.5 L16.1325,4.5 Z M18,0 L4.5,0 C2.025,0 0.0225,2.025 0.0225,4.5 L0,31.5 C0,33.975 2.025,36 4.5,36 L40.5,36 C42.975,36 45,33.975 45,31.5 L45,9 C45,6.525 42.975,4.5 40.5,4.5 L22.5,4.5 L18,0 Z" id="path-4"></path>
        <path d="M16.1325,4.5 L20.6325,9 L40.5,9 L40.5,31.5 L4.5,31.5 L4.5,4.5 L16.1325,4.5 L16.1325,4.5 Z M18,0 L4.5,0 C2.025,0 0.0225,2.025 0.0225,4.5 L0,31.5 C0,33.975 2.025,36 4.5,36 L40.5,36 C42.975,36 45,33.975 45,31.5 L45,9 C45,6.525 42.975,4.5 40.5,4.5 L22.5,4.5 L18,0 Z" id="path-6"></path>
        <path d="M16.1325,4.5 L20.6325,9 L40.5,9 L40.5,31.5 L4.5,31.5 L4.5,4.5 L16.1325,4.5 L16.1325,4.5 Z M18,0 L4.5,0 C2.025,0 0.0225,2.025 0.0225,4.5 L0,31.5 C0,33.975 2.025,36 4.5,36 L40.5,36 C42.975,36 45,33.975 45,31.5 L45,9 C45,6.525 42.975,4.5 40.5,4.5 L22.5,4.5 L18,0 Z" id="path-8"></path>
        <path d="M16.1325,4.5 L20.6325,9 L40.5,9 L40.5,31.5 L4.5,31.5 L4.5,4.5 L16.1325,4.5 L16.1325,4.5 Z M18,0 L4.5,0 C2.025,0 0.0225,2.025 0.0225,4.5 L0,31.5 C0,33.975 2.025,36 4.5,36 L40.5,36 C42.975,36 45,33.975 45,31.5 L45,9 C45,6.525 42.975,4.5 40.5,4.5 L22.5,4.5 L18,0 Z" id="path-10"></path>
        <linearGradient x1="100%" y1="0.581273802%" x2="4.63205377%" y2="93.508055%" id="linearGradient-12">
            <stop stop-color="#E0526E" offset="0%"></stop>
            <stop stop-color="#FF1744" offset="100%"></stop>
        </linearGradient>
        <linearGradient x1="7.038101%" y1="24.7211867%" x2="72.8958667%" y2="79.9121758%" id="linearGradient-13">
            <stop stop-color="#C3FF99" offset="0%"></stop>
            <stop stop-color="#8DF88F" offset="51.9504856%"></stop>
            <stop stop-color="#00E676" offset="100%"></stop>
        </linearGradient>
        <polygon id="path-14" points="0.489445275 0.08817675 521.061518 377.839613 258.819794 402.917934 54.0093458 278.77998"></polygon>
        <filter x="-23.0%" y="-32.2%" width="146.6%" height="159.7%" filterUnits="objectBoundingBox" id="filter-15">
            <feMorphology radius="1.75" operator="dilate" in="SourceAlpha" result="shadowSpreadOuter1"></feMorphology>
            <feOffset dx="0" dy="-15" in="shadowSpreadOuter1" result="shadowOffsetOuter1"></feOffset>
            <feGaussianBlur stdDeviation="15" in="shadowOffsetOuter1" result="shadowBlurOuter1"></feGaussianBlur>
            <feComposite in="shadowBlurOuter1" in2="SourceAlpha" operator="out" result="shadowBlurOuter1"></feComposite>
            <feColorMatrix values="0 0 0 0 0   0 0 0 0 0   0 0 0 0 0  0 0 0 0.2 0" type="matrix" in="shadowBlurOuter1" result="shadowMatrixOuter1"></feColorMatrix>
            <feMorphology radius="2.25" operator="dilate" in="SourceAlpha" result="shadowSpreadOuter2"></feMorphology>
            <feOffset dx="0" dy="-8" in="shadowSpreadOuter2" result="shadowOffsetOuter2"></feOffset>
            <feGaussianBlur stdDeviation="37.5" in="shadowOffsetOuter2" result="shadowBlurOuter2"></feGaussianBlur>
            <feComposite in="shadowBlurOuter2" in2="SourceAlpha" operator="out" result="shadowBlurOuter2"></feComposite>
            <feColorMatrix values="0 0 0 0 0   0 0 0 0 0   0 0 0 0 0  0 0 0 0.12 0" type="matrix" in="shadowBlurOuter2" result="shadowMatrixOuter2"></feColorMatrix>
            <feMorphology radius="2.25" operator="dilate" in="SourceAlpha" result="shadowSpreadOuter3"></feMorphology>
            <feOffset dx="0" dy="-30" in="shadowSpreadOuter3" result="shadowOffsetOuter3"></feOffset>
            <feGaussianBlur stdDeviation="19" in="shadowOffsetOuter3" result="shadowBlurOuter3"></feGaussianBlur>
            <feComposite in="shadowBlurOuter3" in2="SourceAlpha" operator="out" result="shadowBlurOuter3"></feComposite>
            <feColorMatrix values="0 0 0 0 0   0 0 0 0 0   0 0 0 0 0  0 0 0 0.14 0" type="matrix" in="shadowBlurOuter3" result="shadowMatrixOuter3"></feColorMatrix>
            <feMerge>
                <feMergeNode in="shadowMatrixOuter1"></feMergeNode>
                <feMergeNode in="shadowMatrixOuter2"></feMergeNode>
                <feMergeNode in="shadowMatrixOuter3"></feMergeNode>
            </feMerge>
        </filter>
        <filter x="-4.5%" y="-5.4%" width="109.2%" height="110.9%" filterUnits="objectBoundingBox" id="filter-16">
            <feOffset dx="0" dy="2" in="SourceAlpha" result="shadowOffsetOuter1"></feOffset>
            <feGaussianBlur stdDeviation="1.5" in="shadowOffsetOuter1" result="shadowBlurOuter1"></feGaussianBlur>
            <feColorMatrix values="0 0 0 0 0   0 0 0 0 0   0 0 0 0 0  0 0 0 0.5 0" type="matrix" in="shadowBlurOuter1" result="shadowMatrixOuter1"></feColorMatrix>
            <feMerge>
                <feMergeNode in="shadowMatrixOuter1"></feMergeNode>
                <feMergeNode in="SourceGraphic"></feMergeNode>
            </feMerge>
        </filter>
    </defs>
    <g id="Banner" stroke="none" stroke-width="1" fill="none" fill-rule="evenodd">
        <g id="Logo" transform="translate(138.000000, 138.000000)">
            <g>
                <mask id="mask-2" fill="white">
                    <use xlink:href="#path-1"></use>
                </mask>
                <g id="Surface">
                    <use fill="black" fill-opacity="1" filter="url(#filter-3)" xlink:href="#path-1"></use>
                    <use fill="#FAFAFA" fill-rule="evenodd" xlink:href="#path-1"></use>
                </g>
                <g id="Nodes" opacity="0.4" mask="url(#mask-2)">
                    <g transform="translate(57.750000, 62.250000)">
                        <g id="icon/file/folder_24px" stroke="none" stroke-width="1" fill-rule="evenodd" transform="translate(321.000000, 38.250000)">
                            <g id="✱-/-Color-/-Icons-/-Black-/-Disabled-Clipped">
                                <mask id="mask-5" fill="white">
                                    <use xlink:href="#path-4"></use>
                                </mask>
                                <g id="path-4"></g>
                                <g id="✱-/-Color-/-Icons-/-Black-/-Disabled" mask="url(#mask-5)" fill="#000000" fill-opacity="0.38">
                                    <g transform="translate(-4.500000, -9.000000)" id="Rectangle">
                                        <rect x="0" y="0" width="54" height="54"></rect>
                                    </g>
                                </g>
                            </g>
                        </g>
                        <g id="icon/file/folder_24px" stroke="none" stroke-width="1" fill-rule="evenodd" transform="translate(0.000000, 126.750000)">
                            <g id="✱-/-Color-/-Icons-/-Black-/-Disabled-Clipped">
                                <mask id="mask-7" fill="white">
                                    <use xlink:href="#path-6"></use>
                                </mask>
                                <g id="path-6"></g>
                                <g id="✱-/-Color-/-Icons-/-Black-/-Disabled" mask="url(#mask-7)" fill="#000000" fill-opacity="0.38">
                                    <g transform="translate(-4.500000, -9.000000)" id="Rectangle">
                                        <rect x="0" y="0" width="54" height="54"></rect>
                                    </g>
                                </g>
                            </g>
                        </g>
                        <g id="icon/file/folder_24px" stroke="none" stroke-width="1" fill-rule="evenodd" transform="translate(339.750000, 294.000000)">
                            <g id="✱-/-Color-/-Icons-/-Black-/-Disabled-Clipped">
                                <mask id="mask-9" fill="white">
                                    <use xlink:href="#path-8"></use>
                                </mask>
                                <g id="path-8"></g>
                                <g id="✱-/-Color-/-Icons-/-Black-/-Disabled" mask="url(#mask-9)" fill="#000000" fill-opacity="0.38">
                                    <g transform="translate(-4.500000, -9.000000)" id="Rectangle">
                                        <rect x="0" y="0" width="54" height="54"></rect>
                                    </g>
                                </g>
                            </g>
                        </g>
                        <g id="icon/file/folder_24px" stroke="none" stroke-width="1" fill-rule="evenodd" transform="translate(112.500000, 0.000000)">
                            <g id="✱-/-Color-/-Icons-/-Black-/-Disabled-Clipped">
                                <mask id="mask-11" fill="white">
                                    <use xlink:href="#path-10"></use>
                                </mask>
                                <g id="path-10"></g>
                                <g id="✱-/-Color-/-Icons-/-Black-/-Disabled" mask="url(#mask-11)" fill="#000000" fill-opacity="0.38">
                                    <g transform="translate(-4.500000, -9.000000)" id="Rectangle">
                                        <rect x="0" y="0" width="54" height="54"></rect>
                                    </g>
                                </g>
                            </g>
                        </g>
                        <path d="M307.5,60 L53.25,139.5" id="Line" stroke-opacity="0.38" stroke="#000000" stroke-width="4.5" stroke-linecap="round"></path>
                        <path d="M108,45 L31.5,122.25" id="Line" stroke-opacity="0.38" stroke="#000000" stroke-width="4.5" stroke-linecap="round"></path>
                        <path d="M307.5,45 L169.5,18" id="Line" stroke-opacity="0.38" stroke="#000000" stroke-width="4.5" stroke-linecap="round"></path>
                        <path d="M343.5,83.25 L362.25,285" id="Line" stroke-opacity="0.38" stroke="#000000" stroke-width="4.5" stroke-linecap="round"></path>
                        <path d="M31.5,171.75 L330.75,312" id="Line" stroke-opacity="0.38" stroke="#000000" stroke-width="4.5" stroke-linecap="round"></path>
                    </g>
                </g>
                <g id="Shapes" mask="url(#mask-2)">
                    <g transform="translate(-37.500000, 157.500000)">
                        <polygon id="Path-3" stroke="#CC0028" stroke-width="4.5" fill="url(#linearGradient-12)" fill-rule="nonzero" points="571.80627 151.835083 375.624967 276.17397 446.966491 349.870283 574.821428 276.17397"></polygon>
                        <g id="Path" stroke="none" fill="none">
                            <use fill="black" fill-opacity="1" filter="url(#filter-15)" xlink:href="#path-14"></use>
                            <use stroke="#00CC69" stroke-width="4.5" fill="url(#linearGradient-13)" fill-rule="evenodd" xlink:href="#path-14"></use>
                        </g>
                    </g>
                </g>
                <g filter="url(#filter-16)" transform="translate(153.750000, 182.250000)">
                    <path d="M19.2857143,38.5714285 L0,38.5714285 L0,86.7857145 L0.0964285717,86.7857145 L0,173.571429 C0,184.178572 8.67857145,192.857143 19.2857143,192.857143 L192.857143,192.857143 L192.857143,173.571429 L19.2857143,173.571429 L19.2857143,38.5714285 Z M67.5,125.357143 L202.5,125.357143 L168.75,81.9642855 L144.642857,110.989285 L110.892857,67.5 L67.5,125.357143 Z M212.142857,19.2857143 L135,19.2857143 L115.714286,0 L57.8571428,0 C47.25,0 38.6678572,8.67857145 38.6678572,19.2857143 L38.5714286,135 C38.5714286,145.607143 47.25,154.285714 57.8571428,154.285714 L212.142857,154.285714 C222.75,154.285714 231.428572,145.607143 231.428572,135 L231.428572,38.5714286 C231.428572,27.9642857 222.75,19.2857143 212.142857,19.2857143 Z M212.142857,135 L57.8571428,135 L57.8571428,19.2857143 L107.710714,19.2857143 L121.307143,32.8821428 L126.996428,38.5714286 L212.142857,38.5714286 L212.142857,135 Z" id="Folder" fill="#757575" fill-rule="nonzero"></path>
                    <g id="Face" transform="translate(68.250000, 30.750000)">
                        <path d="M5.40254237,-7.10542736e-15 L5.40254237,-7.10542736e-15 C8.38628415,-7.10542736e-15 10.8050848,2.48128504 10.8050848,5.54210526 L10.8050848,19.3973684 C10.8050848,22.4581886 8.38628415,24.9394737 5.40254237,24.9394737 L5.40254237,24.9394737 C2.41880061,24.9394737 7.99360578e-15,22.4581886 7.99360578e-15,19.3973684 L7.99360578e-15,5.54210526 C7.99360578e-15,2.48128504 2.41880061,-7.10542736e-15 5.40254237,-7.10542736e-15 Z" id="Path" fill="#757575" fill-rule="nonzero"></path>
                        <path d="M32.0974576,-7.10542736e-15 L32.0974576,-7.10542736e-15 C35.0811994,-7.10542736e-15 37.5,2.48128504 37.5,5.54210526 L37.5,19.3973684 C37.5,22.4581886 35.0811994,24.9394737 32.0974576,24.9394737 L32.0974576,24.9394737 C29.1137158,24.9394737 26.6949152,22.4581886 26.6949152,19.3973684 L26.6949152,5.54210526 C26.6949152,2.48128504 29.1137158,-7.10542736e-15 32.0974576,-7.10542736e-15 Z" id="Path" fill="#757575" fill-rule="nonzero"></path>
                        <ellipse id="Oval" stroke="#757575" stroke-width="7.65" cx="20.0211865" cy="38.368421" rx="7.94491523" ry="8.31315787"></ellipse>
                        <path d="M27.9661017,38.368421 L31.7796611,38.368421 L31.7796611,56.0338816 C31.7796611,58.2853503 30.0722723,60.1105263 27.9661017,60.1105263 L27.9661017,60.1105263 C25.8599311,60.1105263 24.1525424,58.2853503 24.1525424,56.0338816 L24.1525424,42.4450658 C24.1525424,40.1935971 25.8599311,38.368421 27.9661017,38.368421 Z" id="Path" fill="#757575" fill-rule="nonzero"></path>
                    </g>
                </g>
            </g>
        </g>
        <path d="M856.210938,282.101562 C856.210938,299.890714 852.273477,314.005807 844.398438,324.447266 C836.523398,334.888724 825.976629,340.109375 812.757812,340.109375 C797.148359,340.109375 785.195354,334.625055 776.898438,323.65625 L776.898438,381.875 L764.347656,381.875 L764.347656,223.882812 L776.054688,223.882812 L776.6875,240.019531 C784.914104,227.855408 796.831953,221.773438 812.441406,221.773438 C826.082099,221.773438 836.787071,226.941355 844.556641,237.277344 C852.326211,247.613333 856.210938,261.956939 856.210938,280.308594 L856.210938,282.101562 Z M843.554688,279.886719 C843.554688,265.331958 840.566436,253.83598 834.589844,245.398438 C828.613251,236.960895 820.281303,232.742188 809.59375,232.742188 C801.859336,232.742188 795.214872,234.60545 789.660156,238.332031 C784.105441,242.058612 779.851577,247.472621 776.898438,254.574219 L776.898438,309.3125 C779.92189,315.851595 784.246066,320.843733 789.871094,324.289062 C795.496122,327.734392 802.140587,329.457031 809.804688,329.457031 C820.421928,329.457031 828.701142,325.220745 834.642578,316.748047 C840.584014,308.275348 843.554688,295.988362 843.554688,279.886719 Z M900.929688,184.4375 L957.566406,319.964844 L1014.41406,184.4375 L1031.71094,184.4375 L1031.71094,338 L1018.73828,338 L1018.73828,271.132812 L1019.79297,202.578125 L962.628906,338 L952.609375,338 L895.65625,203.105469 L896.710938,270.710938 L896.710938,338 L883.738281,338 L883.738281,184.4375 L900.929688,184.4375 Z M1108.49219,340.109375 C1098.78901,340.109375 1090.01762,337.718774 1082.17773,332.9375 C1074.33785,328.156226 1068.2383,321.494183 1063.87891,312.951172 C1059.51951,304.40816 1057.33984,294.828178 1057.33984,284.210938 L1057.33984,279.675781 C1057.33984,268.706976 1059.46678,258.828169 1063.7207,250.039062 C1067.97463,241.249956 1073.8984,234.341822 1081.49219,229.314453 C1089.08598,224.287084 1097.31246,221.773438 1106.17188,221.773438 C1120.02351,221.773438 1131.00973,226.501906 1139.13086,235.958984 C1147.25199,245.416063 1151.3125,258.335856 1151.3125,274.71875 L1151.3125,281.785156 L1069.89062,281.785156 L1069.89062,284.210938 C1069.89062,297.148502 1073.59957,307.923785 1081.01758,316.537109 C1088.43558,325.150434 1097.76948,329.457031 1109.01953,329.457031 C1115.76957,329.457031 1121.72849,328.226575 1126.89648,325.765625 C1132.06448,323.304675 1136.75779,319.367215 1140.97656,313.953125 L1148.88672,319.964844 C1139.60542,333.394598 1126.14071,340.109375 1108.49219,340.109375 Z M1106.17188,232.53125 C1096.67964,232.53125 1088.68167,236.011684 1082.17773,242.972656 C1075.6738,249.933629 1071.71876,259.285098 1070.3125,271.027344 L1138.76172,271.027344 L1138.76172,269.65625 C1138.41015,258.687445 1135.28128,249.757847 1129.375,242.867188 C1123.46872,235.976528 1115.73442,232.53125 1106.17188,232.53125 Z M1167.44922,279.886719 C1167.44922,262.16788 1171.40426,248.052787 1179.31445,237.541016 C1187.22465,227.029244 1197.96478,221.773438 1211.53516,221.773438 C1226.93367,221.773438 1238.67574,227.855408 1246.76172,240.019531 L1246.76172,176 L1259.3125,176 L1259.3125,338 L1247.5,338 L1246.97266,322.8125 C1238.88668,334.343808 1227.00398,340.109375 1211.32422,340.109375 C1198.17572,340.109375 1187.57621,334.818412 1179.52539,324.236328 C1171.47457,313.654244 1167.44922,299.363371 1167.44922,281.363281 L1167.44922,279.886719 Z M1180.21094,282.101562 C1180.21094,296.656323 1183.12888,308.134724 1188.96484,316.537109 C1194.80081,324.939495 1203.02729,329.140625 1213.64453,329.140625 C1229.18367,329.140625 1240.22262,322.285225 1246.76172,308.574219 L1246.76172,254.996094 C1240.22262,240.160082 1229.25398,232.742188 1213.85547,232.742188 C1203.23823,232.742188 1194.97659,236.908161 1189.07031,245.240234 C1183.16403,253.572307 1180.21094,265.859294 1180.21094,282.101562 Z M1303.29297,338 L1290.63672,338 L1290.63672,223.882812 L1303.29297,223.882812 L1303.29297,338 Z M1288.42188,190.871094 C1288.42188,188.480457 1289.1953,186.458993 1290.74219,184.806641 C1292.28907,183.154289 1294.39842,182.328125 1297.07031,182.328125 C1299.7422,182.328125 1301.86913,183.154289 1303.45117,184.806641 C1305.03321,186.458993 1305.82422,188.480457 1305.82422,190.871094 C1305.82422,193.261731 1305.03321,195.265617 1303.45117,196.882812 C1301.86913,198.500008 1299.7422,199.308594 1297.07031,199.308594 C1294.39842,199.308594 1292.28907,198.500008 1290.74219,196.882812 C1289.1953,195.265617 1288.42188,193.261731 1288.42188,190.871094 Z M1406.23047,338 C1404.96484,334.414045 1404.15625,329.105504 1403.80469,322.074219 C1399.37498,327.839873 1393.73246,332.287094 1386.87695,335.416016 C1380.02145,338.544938 1372.76176,340.109375 1365.09766,340.109375 C1354.12885,340.109375 1345.25199,337.050812 1338.4668,330.933594 C1331.68161,324.816376 1328.28906,317.082078 1328.28906,307.730469 C1328.28906,296.621038 1332.91206,287.832064 1342.1582,281.363281 C1351.40434,274.894499 1364.28898,271.660156 1380.8125,271.660156 L1403.69922,271.660156 L1403.69922,258.6875 C1403.69922,250.531209 1401.18557,244.115258 1396.1582,239.439453 C1391.13083,234.763648 1383.80083,232.425781 1374.16797,232.425781 C1365.37886,232.425781 1358.10159,234.675759 1352.33594,239.175781 C1346.57028,243.675804 1343.6875,249.089812 1343.6875,255.417969 L1331.03125,255.3125 C1331.03125,246.242142 1335.24996,238.384799 1343.6875,231.740234 C1352.12504,225.09567 1362.49603,221.773438 1374.80078,221.773438 C1387.52741,221.773438 1397.56442,224.955046 1404.91211,231.318359 C1412.2598,237.681672 1416.03906,246.558537 1416.25,257.949219 L1416.25,311.949219 C1416.25,322.988336 1417.41014,331.249973 1419.73047,336.734375 L1419.73047,338 L1406.23047,338 Z M1366.57422,328.929688 C1375.01176,328.929688 1382.5527,326.890645 1389.19727,322.8125 C1395.84183,318.734355 1400.67577,313.28519 1403.69922,306.464844 L1403.69922,281.363281 L1381.12891,281.363281 C1368.54291,281.503907 1358.69925,283.806618 1351.59766,288.271484 C1344.49606,292.73635 1340.94531,298.871055 1340.94531,306.675781 C1340.94531,313.074251 1343.31834,318.382791 1348.06445,322.601562 C1352.81057,326.820334 1358.98043,328.929688 1366.57422,328.929688 Z M1563.80078,338 L1550.82812,338 L1462.55078,206.585938 L1462.55078,338 L1449.47266,338 L1449.47266,184.4375 L1462.55078,184.4375 L1550.93359,315.957031 L1550.93359,184.4375 L1563.80078,184.4375 L1563.80078,338 Z M1589.53516,279.253906 C1589.53516,268.285101 1591.66209,258.406294 1595.91602,249.617188 C1600.16994,240.828081 1606.1816,233.990259 1613.95117,229.103516 C1621.72074,224.216772 1630.52729,221.773438 1640.37109,221.773438 C1655.55867,221.773438 1667.86323,227.099556 1677.28516,237.751953 C1686.70708,248.40435 1691.41797,262.519443 1691.41797,280.097656 L1691.41797,282.734375 C1691.41797,293.773493 1689.29104,303.705034 1685.03711,312.529297 C1680.78318,321.35356 1674.7891,328.156226 1667.05469,332.9375 C1659.32027,337.718774 1650.49614,340.109375 1640.58203,340.109375 C1625.46477,340.109375 1613.17778,334.783256 1603.7207,324.130859 C1594.26362,313.478462 1589.53516,299.363369 1589.53516,281.785156 L1589.53516,279.253906 Z M1602.19141,282.734375 C1602.19141,296.375068 1605.72457,307.572222 1612.79102,316.326172 C1619.85746,325.080122 1629.12104,329.457031 1640.58203,329.457031 C1651.97271,329.457031 1661.20114,325.080122 1668.26758,316.326172 C1675.33402,307.572222 1678.86719,296.023509 1678.86719,281.679688 L1678.86719,279.253906 C1678.86719,270.535113 1677.25002,262.554724 1674.01562,255.3125 C1670.78123,248.070276 1666.24612,242.46291 1660.41016,238.490234 C1654.57419,234.517558 1647.89457,232.53125 1640.37109,232.53125 C1629.12104,232.53125 1619.94535,236.943315 1612.84375,245.767578 C1605.74215,254.591841 1602.19141,266.140554 1602.19141,280.414062 L1602.19141,282.734375 Z M1709.03125,279.886719 C1709.03125,262.16788 1712.98629,248.052787 1720.89648,237.541016 C1728.80668,227.029244 1739.54681,221.773438 1753.11719,221.773438 C1768.5157,221.773438 1780.25777,227.855408 1788.34375,240.019531 L1788.34375,176 L1800.89453,176 L1800.89453,338 L1789.08203,338 L1788.55469,322.8125 C1780.46871,334.343808 1768.58602,340.109375 1752.90625,340.109375 C1739.75775,340.109375 1729.15824,334.818412 1721.10742,324.236328 C1713.0566,313.654244 1709.03125,299.363371 1709.03125,281.363281 L1709.03125,279.886719 Z M1721.79297,282.101562 C1721.79297,296.656323 1724.71091,308.134724 1730.54688,316.537109 C1736.38284,324.939495 1744.60932,329.140625 1755.22656,329.140625 C1770.7657,329.140625 1781.80465,322.285225 1788.34375,308.574219 L1788.34375,254.996094 C1781.80465,240.160082 1770.83601,232.742188 1755.4375,232.742188 C1744.82026,232.742188 1736.55862,236.908161 1730.65234,245.240234 C1724.74606,253.572307 1721.79297,265.859294 1721.79297,282.101562 Z M1874.93359,340.109375 C1865.23042,340.109375 1856.45902,337.718774 1848.61914,332.9375 C1840.77926,328.156226 1834.67971,321.494183 1830.32031,312.951172 C1825.96092,304.40816 1823.78125,294.828178 1823.78125,284.210938 L1823.78125,279.675781 C1823.78125,268.706976 1825.90818,258.828169 1830.16211,250.039062 C1834.41604,241.249956 1840.33981,234.341822 1847.93359,229.314453 C1855.52738,224.287084 1863.75386,221.773438 1872.61328,221.773438 C1886.46491,221.773438 1897.45113,226.501906 1905.57227,235.958984 C1913.6934,245.416063 1917.75391,258.335856 1917.75391,274.71875 L1917.75391,281.785156 L1836.33203,281.785156 L1836.33203,284.210938 C1836.33203,297.148502 1840.04098,307.923785 1847.45898,316.537109 C1854.87699,325.150434 1864.21088,329.457031 1875.46094,329.457031 C1882.21097,329.457031 1888.1699,328.226575 1893.33789,325.765625 C1898.50589,323.304675 1903.1992,319.367215 1907.41797,313.953125 L1915.32812,319.964844 C1906.04683,333.394598 1892.58212,340.109375 1874.93359,340.109375 Z M1872.61328,232.53125 C1863.12105,232.53125 1855.12308,236.011684 1848.61914,242.972656 C1842.1152,249.933629 1838.16016,259.285098 1836.75391,271.027344 L1905.20312,271.027344 L1905.20312,269.65625 C1904.85156,258.687445 1901.72269,249.757847 1895.81641,242.867188 C1889.91013,235.976528 1882.17583,232.53125 1872.61328,232.53125 Z" id="pMediaNode" fill="#000000" fill-rule="nonzero"></path>
        <path d="M778.996,474.996 L769.168,474.996 C765.82,479.964 762.04,484.392 758.044,487.74 C756.964,486.66 754.48,484.176 752.968,483.096 C759.772,477.588 766.036,469.488 769.708,461.064 L776.188,462.792 C775.216,464.952 774.136,467.004 773.056,469.056 L801.568,469.056 L801.568,474.996 L779.968,474.996 C783.208,477.804 787.096,481.584 789.148,484.068 L784.396,488.172 C782.344,485.472 778.24,481.152 774.784,478.02 L778.996,474.996 Z M789.904,493.896 L765.82,493.896 L765.82,500.268 L789.904,500.268 L789.904,493.896 Z M765.82,511.5 L789.904,511.5 L789.904,505.02 L765.82,505.02 L765.82,511.5 Z M796.492,516.36 L765.82,516.36 L765.82,560.1 L759.232,560.1 L759.232,489.036 L796.492,489.036 L796.492,516.36 Z M815.5,526.944 L788.932,526.944 L788.932,534.396 L815.5,534.396 L815.5,526.944 Z M788.932,546.6 L815.5,546.6 L815.5,539.04 L788.932,539.04 L788.932,546.6 Z M821.98,522.084 L821.98,551.352 L788.932,551.352 L788.932,555.24 L782.344,555.24 L782.344,522.084 L821.98,522.084 Z M812.692,511.5 L837.964,511.5 L837.964,505.02 L812.692,505.02 L812.692,511.5 Z M837.964,493.896 L812.692,493.896 L812.692,500.268 L837.964,500.268 L837.964,493.896 Z M844.66,489.036 L844.66,551.568 C844.66,555.78 843.688,557.832 840.772,558.912 C837.748,560.1 832.456,560.208 824.356,560.1 C824.14,558.264 823.06,555.456 822.088,553.62 C828.352,553.836 834.076,553.836 835.696,553.728 C837.424,553.62 837.964,553.188 837.964,551.568 L837.964,516.36 L806.104,516.36 L806.104,489.036 L844.66,489.036 Z M836.668,484.284 L831.808,488.604 C829.756,485.904 825.328,481.692 821.656,478.776 L826.3,474.996 C829.972,477.696 834.508,481.8 836.668,484.284 Z M817.876,469.164 L850.816,469.164 L850.816,474.996 L814.744,474.996 C811.828,479.748 808.48,484.068 804.916,487.308 C803.728,486.228 801.028,483.96 799.3,482.988 C805.672,477.696 810.964,469.596 813.88,461.172 L820.468,462.684 C819.82,464.952 818.848,467.004 817.876,469.164 Z M882.532,490.008 L882.532,501.456 L937.18,501.456 L937.18,490.008 L882.532,490.008 Z M882.532,472.836 L882.532,484.176 L937.18,484.176 L937.18,472.836 L882.532,472.836 Z M889.12,517.224 L951.436,517.224 C951.436,517.224 951.328,519.6 951.112,520.464 C949.06,544.872 947.116,554.052 943.768,557.292 C941.824,559.344 939.772,560.1 936.748,560.208 C934.048,560.424 928.864,560.316 923.464,559.992 C923.356,558.156 922.6,555.564 921.52,553.728 C926.812,554.268 931.996,554.268 933.94,554.268 C935.884,554.268 936.856,554.16 937.828,553.08 C940.204,550.92 942.04,543.036 943.768,523.704 L930.052,523.704 C924.22,538.824 915.148,552 904.78,560.748 C903.592,559.56 900.784,557.184 899.056,556.212 C909.1,548.544 917.416,536.88 922.6,523.704 L907.156,523.704 C899.164,537.744 886.96,549.948 874.648,558.048 C873.46,556.644 870.76,554.052 869.14,552.864 C880.912,546.168 891.928,535.692 899.272,523.704 L883.18,523.704 C877.672,529.32 871.516,534.18 865.576,537.96 C864.388,536.664 861.58,534.072 859.852,532.992 C870.544,526.944 880.912,517.764 887.932,507.612 L875.62,507.612 L875.62,466.788 L944.416,466.788 L944.416,507.612 L896.248,507.612 C894.196,510.852 891.712,514.2 889.12,517.224 Z M1007.128,496.596 C1014.904,502.86 1024.516,512.58 1031.536,520.68 L1024.948,526.296 C1017.928,517.548 1008.64,508.368 1000.972,502.212 L1007.128,496.596 Z M1097.704,462.144 L1104.508,464.088 C1101.592,472.296 1098.136,480.504 1094.14,488.064 L1094.14,559.884 L1087.228,559.884 L1087.228,499.944 C1084.312,504.588 1081.18,508.8 1078.048,512.472 C1077.292,510.744 1075.024,507.18 1073.728,505.452 C1083.448,494.868 1092.304,478.668 1097.704,462.144 Z M1114.552,518.736 L1134.424,518.736 C1134.532,516.792 1134.532,514.632 1134.532,512.688 L1134.532,506.964 L1114.552,506.964 L1114.552,518.736 Z M1114.552,489.792 L1114.552,501.456 L1134.532,501.456 L1134.532,489.792 L1114.552,489.792 Z M1160.236,489.792 L1141.552,489.792 L1141.552,501.456 L1160.236,501.456 L1160.236,489.792 Z M1160.236,518.736 L1160.236,506.964 L1141.552,506.964 L1141.552,512.688 C1141.552,514.632 1141.552,516.792 1141.336,518.736 L1160.236,518.736 Z M1167.148,524.46 L1140.796,524.46 C1139.716,531.48 1137.34,538.068 1132.156,544.008 C1143.388,548.868 1157.428,551.784 1173.412,552.972 C1171.792,554.484 1169.956,557.508 1169.2,559.452 C1152.892,557.94 1138.528,554.592 1127.08,548.868 C1121.464,553.512 1113.472,557.4 1102.564,560.424 C1101.7,558.804 1099.756,555.996 1098.352,554.484 C1108.396,552.216 1115.74,549.084 1120.924,545.412 C1114.336,541.2 1109.044,536.016 1105.048,529.644 L1111.204,527.376 C1114.66,532.884 1119.736,537.42 1126.108,540.984 C1130.752,536.016 1132.804,530.4 1133.776,524.46 L1107.856,524.46 L1107.856,484.068 L1134.532,484.068 L1134.532,474.564 L1104.724,474.564 L1104.724,468.084 L1171.144,468.084 L1171.144,474.564 L1141.552,474.564 L1141.552,484.068 L1167.148,484.068 L1167.148,524.46 Z M1213.876,513.984 L1201.78,518.088 L1201.78,551.568 C1201.78,555.672 1200.916,557.724 1198.324,558.912 C1195.948,559.992 1191.844,560.208 1185.148,560.1 C1184.824,558.48 1183.96,555.456 1182.988,553.512 C1187.848,553.728 1191.952,553.728 1193.248,553.62 C1194.652,553.62 1195.192,553.188 1195.192,551.568 L1195.192,520.248 C1190.332,521.868 1185.796,523.38 1181.8,524.676 L1179.856,517.764 C1184.068,516.576 1189.36,514.956 1195.192,513.12 L1195.192,490.332 L1181.368,490.332 L1181.368,483.744 L1195.192,483.744 L1195.192,461.82 L1201.78,461.82 L1201.78,483.744 L1213.876,483.744 L1213.876,490.332 L1201.78,490.332 L1201.78,510.96 C1205.452,509.772 1209.232,508.584 1212.904,507.288 L1213.876,513.984 Z M1249.084,505.776 L1249.084,515.388 L1265.932,515.388 L1265.932,505.776 L1249.084,505.776 Z M1249.084,491.088 L1249.084,499.836 L1265.932,499.836 L1265.932,491.088 L1249.084,491.088 Z M1272.628,521.22 L1249.084,521.22 L1249.084,531.156 L1273.708,531.156 L1273.708,537.096 L1249.084,537.096 L1249.084,552.324 C1252.324,552.756 1255.78,552.972 1259.452,552.972 C1261.72,552.972 1276.84,552.972 1280.512,552.864 C1279.432,554.376 1278.352,557.508 1278.136,559.128 L1259.128,559.128 C1242.172,559.128 1230.94,555.672 1223.488,542.496 C1220.68,549.732 1216.9,555.78 1211.932,560.424 C1210.96,559.344 1208.044,557.292 1206.532,556.428 C1215.064,548.868 1219.708,537.204 1221.76,523.056 L1228.24,523.92 C1227.7,527.592 1227.052,531.048 1226.188,534.396 C1229.644,543.468 1235.152,548.328 1242.496,550.812 L1242.496,521.22 L1220.14,521.22 L1220.14,515.388 L1242.496,515.388 L1242.496,505.776 L1213.984,505.776 L1213.984,499.836 L1242.496,499.836 L1242.496,491.088 L1220.14,491.088 L1220.14,485.364 L1242.496,485.364 L1242.496,477.588 L1215.388,477.588 L1215.388,471.648 L1242.496,471.648 L1242.496,461.82 L1249.084,461.82 L1249.084,471.648 L1277.812,471.648 L1277.812,477.588 L1249.084,477.588 L1249.084,485.364 L1272.628,485.364 L1272.628,499.836 L1280.512,499.836 L1280.512,505.776 L1272.628,505.776 L1272.628,521.22 Z M1328.428,496.596 C1336.204,502.86 1345.816,512.58 1352.836,520.68 L1346.248,526.296 C1339.228,517.548 1329.94,508.368 1322.272,502.212 L1328.428,496.596 Z M1416.088,462.36 L1422.568,464.196 C1420.408,471.324 1417.708,478.56 1414.792,485.472 L1414.792,560.208 L1407.988,560.208 L1407.988,499.08 C1404.964,504.48 1401.616,509.556 1398.268,513.768 C1397.512,512.256 1395.568,508.368 1394.38,506.748 C1403.236,495.84 1411.228,479.208 1416.088,462.36 Z M1443.628,536.988 L1441.792,538.5 C1446.004,541.632 1450.972,544.332 1456.696,546.492 C1463.5,543.792 1469.008,540.552 1472.896,536.988 L1443.628,536.988 Z M1478.944,531.696 L1483.48,534.396 C1479.376,540.228 1473.004,545.196 1464.688,549.3 C1473.328,551.784 1483.156,553.512 1493.2,554.484 C1491.796,555.888 1490.176,558.48 1489.312,560.316 C1477.648,558.912 1466.416,556.32 1456.696,552.648 C1447.3,555.996 1436.176,558.588 1423.324,560.316 C1422.568,558.696 1420.948,556.32 1419.652,554.916 C1430.668,553.62 1440.388,551.676 1448.704,549.3 C1444.276,547.032 1440.28,544.656 1436.716,541.848 C1433.26,544.116 1429.372,546.168 1425.268,548.112 C1424.296,546.6 1422.46,544.764 1420.948,543.9 C1425.16,542.172 1429.048,540.12 1432.504,538.068 C1430.884,536.556 1429.48,534.936 1428.292,533.316 L1433.908,531.048 C1434.88,532.344 1436.068,533.64 1437.256,534.828 C1441.036,532.128 1444.276,529.428 1446.652,526.728 C1443.52,525.972 1442.548,524.244 1442.548,520.248 L1442.548,513.66 L1448.488,513.66 L1448.488,520.248 C1448.488,522.3 1449.136,522.624 1452.916,522.624 L1466.956,522.624 C1469.548,522.624 1470.088,522.084 1470.412,517.656 C1471.708,518.412 1473.868,519.06 1475.488,519.384 C1474.84,525.54 1473.112,527.16 1467.712,527.16 L1454.104,527.16 C1452.808,528.888 1451.188,530.4 1449.46,532.02 L1477.648,532.02 L1478.944,531.696 Z M1436.824,513.768 L1441.468,516.252 C1438.876,520.356 1434.88,525.216 1430.02,528.348 L1425.7,524.784 C1430.236,522.3 1434.448,517.656 1436.824,513.768 Z M1490.284,525.756 L1485.964,528.78 C1483.48,525 1478.188,519.708 1473.436,516.036 L1477.648,513.444 C1482.292,517.008 1487.692,522.192 1490.284,525.756 Z M1439.632,500.376 L1439.632,505.344 L1476.784,505.344 L1476.784,500.376 L1439.632,500.376 Z M1476.784,482.664 L1439.632,482.664 L1439.632,487.524 L1476.784,487.524 L1476.784,482.664 Z M1476.784,496.488 L1476.784,491.52 L1439.632,491.52 L1439.632,496.488 L1476.784,496.488 Z M1483.48,505.344 L1493.74,505.344 L1493.74,519.708 L1487.152,519.708 L1487.152,510.204 L1455.832,510.204 C1459.504,512.148 1463.824,515.064 1466.092,517.332 L1462.096,520.464 C1459.612,518.088 1455.076,514.74 1451.188,512.688 L1454.752,510.204 L1428.616,510.204 L1428.616,519.708 L1422.244,519.708 L1422.244,505.344 L1433.044,505.344 L1433.044,478.236 L1451.944,478.236 C1452.484,476.292 1452.916,474.24 1453.348,472.296 L1424.944,472.296 L1424.944,466.68 L1492.12,466.68 L1492.12,472.296 L1461.016,472.296 L1458.748,478.236 L1483.48,478.236 L1483.48,505.344 Z M1528.048,474.132 L1517.032,474.132 C1515.412,483.42 1513.468,494.652 1511.632,503.4 L1528.048,503.4 L1528.048,474.132 Z M1534.636,474.132 L1534.636,503.4 L1542.844,503.4 L1542.844,510.204 L1534.636,510.204 L1534.636,550.92 C1534.636,555.564 1533.448,557.508 1530.64,558.696 C1527.616,559.884 1522.54,560.1 1514.44,560.1 C1514.116,558.156 1513.144,555.132 1512.172,553.188 C1518.436,553.404 1524.16,553.404 1525.672,553.296 C1527.4,553.188 1528.048,552.648 1528.048,550.92 L1528.048,512.688 C1522.54,527.052 1513.9,541.74 1506.016,550.056 C1504.828,548.436 1502.668,546.168 1501.156,544.98 C1508.932,537.744 1517.572,523.488 1522.756,510.204 L1503.748,510.204 C1506.016,500.916 1508.932,485.904 1510.66,474.132 L1503.316,474.132 L1503.316,467.436 L1542.952,467.436 L1542.952,474.132 L1534.636,474.132 Z M1558.396,531.48 L1558.396,547.032 L1576.108,547.032 L1576.108,531.48 L1558.396,531.48 Z M1576.108,503.292 L1576.108,487.956 L1558.396,487.956 L1558.396,503.292 L1576.108,503.292 Z M1576.108,525.216 L1576.108,509.664 L1558.396,509.664 L1558.396,525.216 L1576.108,525.216 Z M1600.408,547.032 L1600.408,553.62 L1558.396,553.62 L1558.396,559.992 L1551.808,559.992 L1551.808,495.408 C1549.648,499.08 1547.488,502.212 1545.22,505.128 C1544.248,503.832 1541.98,501.024 1540.468,499.836 C1548.568,490.332 1555.156,476.184 1559.476,462.036 L1565.74,463.548 C1563.904,469.596 1561.636,475.644 1559.152,481.368 L1578.16,481.368 C1577.296,476.832 1575.028,470.028 1572.652,464.844 L1578.7,462.792 C1581.4,468.084 1583.776,474.888 1584.64,479.316 L1578.808,481.368 L1600.084,481.368 L1600.084,487.956 L1582.804,487.956 L1582.804,503.292 L1597.492,503.292 L1597.492,509.664 L1582.804,509.664 L1582.804,525.216 L1597.492,525.216 L1597.492,531.48 L1582.804,531.48 L1582.804,547.032 L1600.408,547.032 Z M1644.976,509.016 L1644.976,485.472 L1621.324,485.472 L1621.324,509.016 L1644.976,509.016 Z M1621.324,542.28 L1644.976,542.28 L1644.976,515.496 L1621.324,515.496 L1621.324,542.28 Z M1631.368,461.496 L1639.036,463.008 C1637.308,468.3 1635.256,474.348 1633.312,478.992 L1651.564,478.992 L1651.564,548.76 L1621.324,548.76 L1621.324,557.4 L1614.736,557.4 L1614.736,478.992 L1626.724,478.992 C1628.56,473.916 1630.504,466.572 1631.368,461.496 Z M1704.484,478.776 L1704.484,482.556 C1702.756,532.128 1701.244,548.652 1696.924,553.836 C1694.764,556.752 1692.28,557.616 1688.716,557.94 C1685.044,558.264 1678.888,558.048 1672.84,557.724 C1672.624,555.564 1671.76,552.648 1670.464,550.704 C1677.484,551.352 1683.964,551.352 1686.34,551.352 C1688.5,551.352 1689.796,551.136 1690.876,549.732 C1694.44,545.952 1696.168,529.32 1697.572,485.472 L1669.276,485.472 C1666.252,492.816 1662.796,499.512 1659.124,504.696 C1657.828,503.616 1654.696,501.672 1653.076,500.7 C1660.42,491.088 1666.252,476.184 1669.6,461.28 L1676.512,462.792 C1675.108,468.192 1673.596,473.592 1671.76,478.776 L1704.484,478.776 Z M1687.528,527.376 L1681.48,531.156 C1678.132,524.568 1670.788,513.876 1664.74,506.1 L1670.248,502.86 C1676.512,510.528 1684.072,520.896 1687.528,527.376 Z M1742.14,491.304 L1731.124,491.952 C1729.288,501.78 1727.344,511.176 1725.292,518.844 C1728.856,521.652 1732.636,525 1736.092,528.132 C1741.384,515.388 1742.14,502.212 1742.14,491.304 Z M1753.264,545.844 L1748.944,551.352 C1746.244,547.896 1742.356,543.468 1737.928,538.932 C1733.932,546.276 1728.316,553.404 1720.54,559.776 C1719.568,558.48 1717.3,556.32 1715.788,555.348 C1723.78,548.868 1729.396,541.74 1733.284,534.396 C1728.424,529.644 1723.132,525 1718.38,521.112 C1720.648,513.552 1723.024,503.184 1725.076,492.384 L1716.976,492.816 L1716.22,486.12 C1719.244,486.012 1722.484,485.904 1726.264,485.688 C1727.56,477.48 1728.748,469.272 1729.396,462.036 L1735.66,462.36 C1734.904,469.488 1733.716,477.372 1732.42,485.364 L1742.14,484.824 L1742.14,477.048 L1748.296,477.048 L1748.296,484.5 L1754.02,484.176 L1754.02,490.548 L1748.296,490.872 C1748.296,503.292 1747.324,518.196 1741.06,532.668 C1746.028,537.42 1750.456,542.064 1753.264,545.844 Z M1769.896,532.56 L1775.296,534.504 C1771.516,543.684 1764.388,553.404 1757.26,558.48 C1756.18,556.752 1754.02,554.484 1752.4,553.296 C1759.312,549.192 1766.44,540.768 1769.896,532.56 Z M1770.22,495.948 L1770.22,506.532 L1796.896,506.532 L1796.896,495.948 L1770.22,495.948 Z M1796.896,479.964 L1770.22,479.964 L1770.22,490.224 L1796.896,490.224 L1796.896,479.964 Z M1813.528,528.888 L1787.284,528.888 L1787.284,560.208 L1780.372,560.208 L1780.372,528.888 L1754.02,528.888 L1754.02,522.624 L1780.372,522.624 L1780.372,512.58 L1763.524,512.58 L1763.524,479.964 L1753.588,479.964 L1753.588,473.7 L1763.524,473.7 L1763.524,461.712 L1770.22,461.712 L1770.22,473.7 L1796.896,473.7 L1796.896,461.712 L1803.808,461.712 L1803.808,473.7 L1813.636,473.7 L1813.636,479.964 L1803.808,479.964 L1803.808,512.58 L1787.284,512.58 L1787.284,522.624 L1813.528,522.624 L1813.528,528.888 Z M1792.576,535.044 L1797.76,532.668 C1803.7,539.688 1811.044,549.192 1814.5,555.024 L1808.884,557.832 C1805.536,552 1798.408,542.172 1792.576,535.044 Z M1912.42,483.636 L1912.42,475.536 L1903.132,475.536 L1903.132,483.636 L1912.42,483.636 Z M1912.42,497.244 L1912.42,488.712 L1903.132,488.712 L1903.132,497.244 L1912.42,497.244 Z M1875.808,488.712 L1875.808,497.244 L1884.448,497.244 L1884.448,488.712 L1875.808,488.712 Z M1875.808,475.536 L1875.808,483.636 L1884.448,483.636 L1884.448,475.536 L1875.808,475.536 Z M1898.056,488.712 L1889.524,488.712 L1889.524,497.244 L1898.056,497.244 L1898.056,488.712 Z M1889.524,483.636 L1898.056,483.636 L1898.056,475.536 L1889.524,475.536 L1889.524,483.636 Z M1918.252,470.244 L1918.252,502.536 L1870.084,502.536 L1870.084,470.244 L1883.476,470.244 L1883.476,461.928 L1889.416,461.928 L1889.416,470.244 L1897.84,470.244 L1897.84,461.928 L1903.78,461.928 L1903.78,470.244 L1918.252,470.244 Z M1921.168,508.368 L1921.168,513.984 L1867.6,513.984 L1867.6,508.368 L1921.168,508.368 Z M1879.372,524.46 L1879.372,534.18 L1908.964,534.18 L1908.964,524.46 L1879.372,524.46 Z M1915.66,539.256 L1873,539.256 L1873,519.492 L1915.66,519.492 L1915.66,539.256 Z M1859.824,508.368 L1859.824,500.808 L1830.88,500.808 L1830.88,508.368 L1859.824,508.368 Z M1835.632,471.324 L1835.632,495.408 L1842.868,495.408 L1842.868,478.668 L1854.856,478.668 L1854.856,471.324 L1835.632,471.324 Z M1847.404,495.408 L1854.856,495.408 L1854.856,483.42 L1847.404,483.42 L1847.404,495.408 Z M1861.012,465.708 L1861.012,495.408 L1865.656,495.408 L1865.656,510.528 L1860.688,510.528 L1860.688,552.432 C1860.688,555.672 1860.04,557.292 1857.664,558.372 C1855.396,559.344 1851.832,559.452 1845.568,559.452 C1845.352,557.832 1844.38,555.456 1843.516,553.836 C1847.944,553.944 1851.832,553.944 1852.912,553.944 C1854.1,553.944 1854.532,553.512 1854.532,552.432 L1854.532,537.42 C1849.24,540.66 1843.948,543.9 1839.304,546.6 L1836.388,541.416 C1841.14,539.364 1847.728,535.908 1854.532,532.344 L1854.532,513.552 L1836.712,513.552 L1836.712,528.564 C1836.712,538.284 1835.632,551.244 1829.152,560.532 C1828.072,559.344 1825.696,557.292 1824.076,556.644 C1829.908,548.328 1830.556,537.096 1830.556,528.564 L1830.556,510.528 L1825.264,510.528 L1825.264,495.408 L1829.692,495.408 L1829.692,465.708 L1861.012,465.708 Z M1853.236,527.052 L1849.456,531.048 C1846.864,528.456 1841.788,524.136 1837.684,521.436 L1841.248,517.98 C1845.676,520.788 1850.644,524.46 1853.236,527.052 Z M1905.4,552.216 L1922.032,552.216 L1922.032,557.94 L1866.304,557.94 L1866.304,552.216 L1882.288,552.216 C1881.316,548.868 1879.804,544.764 1878.4,541.632 L1884.016,540.012 C1885.636,543.792 1887.688,548.652 1888.768,552.216 L1899.46,552.216 C1901.188,548.436 1903.24,543.252 1904.32,539.58 L1910.908,541.524 C1909.072,545.088 1907.128,548.976 1905.4,552.216 Z M1957.42,475.644 L1947.484,475.644 C1944.136,481.044 1940.248,485.904 1936.252,489.576 C1935.172,488.496 1932.688,486.012 1931.176,484.824 C1937.98,478.884 1944.136,470.136 1947.808,461.064 L1954.288,462.792 C1953.316,465.168 1952.236,467.436 1951.048,469.812 L1979.668,469.812 L1979.668,475.644 L1958.5,475.644 C1961.848,478.668 1966.06,482.88 1968.22,485.58 L1963.468,489.468 C1961.308,486.66 1956.88,482.124 1953.316,478.668 L1957.42,475.644 Z M2009.692,539.58 L1956.664,539.58 L1956.664,550.704 L2009.692,550.704 L2009.692,539.58 Z M2004.184,510.42 L1956.664,510.42 L1956.664,520.248 L2004.184,520.248 L2004.184,510.42 Z M1956.664,525.864 L1956.664,533.856 L2016.82,533.856 L2016.82,559.884 L2009.692,559.884 L2009.692,556.428 L1956.664,556.428 L1956.664,560.1 L1949.428,560.1 L1949.428,504.804 L2011.204,504.804 L2011.204,525.864 L1956.664,525.864 Z M1974.052,485.04 L1980.532,483.744 C1982.26,486.12 1983.772,489.468 1984.744,492.06 L2024.38,492.06 L2024.38,509.556 L2017.144,509.556 L2017.144,497.784 L1944.784,497.784 L1944.784,509.556 L1937.872,509.556 L1937.872,492.06 L1977.508,492.06 C1976.644,489.684 1975.348,487.2 1974.052,485.04 Z M2016.28,486.12 L2011.528,490.44 C2009.152,487.416 2004.076,482.772 2000.08,479.424 L2004.724,475.644 C2008.828,478.776 2013.796,483.204 2016.28,486.12 Z M1995.328,469.812 L2028.916,469.812 L2028.916,475.644 L1991.764,475.644 C1989.388,479.1 1986.796,482.232 1983.988,484.608 C1982.8,483.528 1980.208,481.26 1978.48,480.288 C1984.312,475.644 1989.28,468.516 1991.98,461.172 L1998.676,462.684 C1997.704,465.168 1996.624,467.436 1995.328,469.812 Z M2071.216,530.832 L2072.404,537.636 C2060.956,541.524 2048.644,545.736 2039.248,548.76 L2037.52,541.524 C2041.624,540.444 2046.7,538.824 2052.208,536.988 L2052.208,507.072 L2039.68,507.072 L2039.68,500.376 L2052.208,500.376 L2052.208,476.076 L2038.708,476.076 L2038.708,469.272 L2071.756,469.272 L2071.756,476.076 L2059.12,476.076 L2059.12,500.376 L2070.244,500.376 L2070.244,507.072 L2059.12,507.072 L2059.12,534.828 C2063.008,533.532 2067.22,532.128 2071.216,530.832 Z M2083.852,493.572 L2083.852,508.26 L2101.24,508.26 L2101.24,493.572 L2083.852,493.572 Z M2083.852,473.16 L2083.852,487.524 L2101.24,487.524 L2101.24,473.16 L2083.852,473.16 Z M2125.108,487.524 L2125.108,473.16 L2107.504,473.16 L2107.504,487.524 L2125.108,487.524 Z M2125.108,508.26 L2125.108,493.572 L2107.504,493.572 L2107.504,508.26 L2125.108,508.26 Z M2108.044,549.948 L2137.204,549.948 L2137.204,556.536 L2067.436,556.536 L2067.436,549.948 L2100.808,549.948 L2100.808,534.396 L2075.86,534.396 L2075.86,527.808 L2100.808,527.808 L2100.808,514.524 L2077.264,514.524 L2077.264,466.788 L2132.02,466.788 L2132.02,514.524 L2108.044,514.524 L2108.044,527.808 L2133.64,527.808 L2133.64,534.396 L2108.044,534.396 L2108.044,549.948 Z M2242.468,514.74 L2242.468,521.868 L2197.756,521.868 L2197.756,560.1 L2190.412,560.1 L2190.412,521.868 L2146.348,521.868 L2146.348,514.74 L2190.412,514.74 L2190.412,476.292 L2151.964,476.292 L2151.964,469.164 L2236.42,469.164 L2236.42,476.292 L2197.756,476.292 L2197.756,514.74 L2242.468,514.74 Z M2159.74,483.636 L2166.112,481.8 C2170.54,489.684 2175.076,500.052 2176.696,506.532 L2169.892,508.8 C2168.272,502.428 2163.952,491.736 2159.74,483.636 Z M2216.224,509.232 L2210.176,507.288 C2214.28,500.376 2219.464,489.036 2222.164,481.152 L2229.724,483.42 C2225.836,492.168 2220.544,502.752 2216.224,509.232 Z M2327.968,522.192 L2274.508,522.192 L2274.508,547.248 L2327.968,547.248 L2327.968,522.192 Z M2267.272,560.1 L2267.272,515.28 L2335.528,515.28 L2335.528,559.884 L2327.968,559.884 L2327.968,554.16 L2274.508,554.16 L2274.508,560.1 L2267.272,560.1 Z M2312.416,478.128 L2318.032,474.456 C2328.616,483.636 2341.144,496.812 2346.76,505.776 L2340.604,510.096 C2338.876,507.288 2336.608,504.048 2333.8,500.592 C2271.052,504.156 2265.004,504.372 2261.116,505.884 C2260.792,504.264 2259.604,500.7 2258.848,498.864 C2261.008,498.324 2263.924,495.948 2267.596,492.384 C2271.376,488.82 2284.228,475.104 2292.868,461.604 L2299.888,464.844 C2291.032,476.832 2281.204,488.28 2271.376,497.244 L2328.616,494.436 C2323.54,488.712 2317.708,482.88 2312.416,478.128 Z M2392.516,511.068 C2392.516,502.104 2399.968,494.76 2408.824,494.76 C2417.788,494.76 2425.132,502.104 2425.132,511.068 C2425.132,520.032 2417.788,527.376 2408.824,527.376 C2399.968,527.376 2392.516,520.032 2392.516,511.068 Z M2397.7,511.068 C2397.7,517.332 2402.668,522.192 2408.824,522.192 C2415.088,522.192 2419.948,517.332 2419.948,511.068 C2419.948,504.912 2415.088,499.944 2408.824,499.944 C2402.668,499.944 2397.7,504.912 2397.7,511.068 Z" id="簡易、便捷、優雅的媒體管理平台。" fill-opacity="0.6" fill="#000000" fill-rule="nonzero"></path>
    </g>
</svg>